<?xml version="1.0" standalone="no"?>
<!DOCTYPE svg PUBLIC "-//W3C//DTD SVG 20010904//EN"
 "http://www.w3.org/TR/2001/REC-SVG-20010904/DTD/svg10.dtd">
<svg version="1.0" xmlns="http://www.w3.org/2000/svg"
 width="1694.000000pt" height="1694.000000pt" viewBox="0 0 1694.000000 1694.000000"
 preserveAspectRatio="xMidYMid meet">
<metadata>
Created by potrace 1.11, written by Peter Selinger 2001-2013
</metadata>
<g transform="translate(0.000000,1694.000000) scale(0.100000,-0.100000)"
fill="#000000" stroke="none">
<path d="M4480 11170 l0 -280 1105 0 1105 0 -2 -1982 -3 -1983 -23 -113 c-102
-511 -340 -783 -773 -883 -145 -33 -413 -38 -578 -10 -210 36 -392 110 -576
234 -111 75 -306 268 -400 395 -54 73 -71 90 -80 80 -7 -7 -81 -92 -165 -188
-84 -96 -166 -189 -182 -206 l-29 -31 67 -89 c396 -533 1050 -819 1767 -775
95 6 228 20 296 32 784 133 1227 662 1311 1564 6 71 10 895 10 2313 l0 2202
-1425 0 -1425 0 0 -280z"/>
<path d="M8380 8405 l0 -3035 325 0 325 0 0 959 0 960 988 5 c543 3 1019 8
1058 11 l71 7 689 -971 689 -970 358 -1 358 0 -24 33 c-21 28 -1378 1932
-1435 2013 l-22 32 88 32 c651 244 1070 690 1227 1309 43 171 57 278 62 498 6
235 -4 369 -42 559 -83 413 -293 772 -601 1032 -370 311 -823 484 -1426 547
-124 13 -351 15 -1418 15 l-1270 0 0 -3035z m2585 2461 c336 -37 538 -89 761
-197 410 -199 656 -524 741 -979 21 -115 29 -436 13 -554 -90 -691 -530 -1112
-1300 -1247 -219 -38 -301 -41 -1232 -46 l-918 -5 0 1521 0 1521 903 0 c707 0
930 -3 1032 -14z"/>
<path d="M10435 9866 c-165 -44 -291 -126 -394 -253 -100 -125 -151 -275 -151
-443 0 -311 179 -563 480 -676 70 -27 85 -28 225 -28 140 0 155 1 225 28 301
113 480 366 480 676 0 312 -188 574 -490 680 -81 29 -294 38 -375 16z"/>
</g>
</svg>
